<svg xmlns="http://www.w3.org/2000/svg" width="38" height="38" fill="#f3f3f3"><path d="M26.837 31.847a9.98 9.98 0 0 1-4.695 2.158C13.12 35.192 6.218 30.1 4.292 22.9a14.88 14.88 0 0 1 1.147-10.531v.8a.95.95 0 0 0 1.017.906c.52.001.95-.408.974-.928l.173-5.2a1.1 1.1 0 0 0-1.319-1.082L1.284 8a1 1 0 0 0-.748.67.99.99 0 0 0 .22.98 1.03 1.03 0 0 0 .963.3l.736-.167A18.9 18.9 0 0 0 29.046 35.05c.674-.34 1.1-1.037 1.07-1.8s-.477-1.428-1.17-1.73a1.94 1.94 0 0 0-2.06.326zm9.5-4.087l-.65.15A18.91 18.91 0 0 0 8.891 2.961a1.95 1.95 0 0 0-.99 1.776c.03.73.47 1.383 1.134 1.687s1.445.2 2.018-.246a10.83 10.83 0 0 1 5.755-2.439c13.9-.7 20.532 12.107 15.75 21.8v-.95a.97.97 0 0 0-.952-.993c-.522.006-.955.408-1 .928l-.173 5.2a1.08 1.08 0 0 0 1.32 1.079l4.982-1.144a.99.99 0 0 0 .736-1.165c-.12-.505-.614-.828-1.125-.734zM24.175 17.568c-.318-1.67 1.143-2.9.14-4.147-1.36-1.7-3.028.616-4.555-.047-1-.43-1.98-1.887-3.448-1.355s-1.293 2.286-1.773 3.255c-.747 1.5-3.506.8-3.463 2.964.03 1.6 1.942 1.6 2.772 3.087.82 1.465-1.084 3.282.637 4.7 2.088 1.724 4.2-1.782 6.032-2.448s5.7.662 6.192-2c.404-2.2-2.228-2.363-2.534-4zm-4.68 3.212a3.17 3.17 0 0 1-3.615-1.223.52.52 0 0 1-.054-.517c.076-.17.233-.287.417-.3.786-.096 1.558-.284 2.3-.558.745-.267 1.456-.62 2.12-1.05.155-.102.353-.114.52-.032a.52.52 0 0 1 .29.432 3.17 3.17 0 0 1-1.978 3.257z"/></svg>